<svg xmlns="http://www.w3.org/2000/svg" width="1200" height="750" viewBox="0 0 1200 750" role="img" aria-labelledby="title desc">
<title id="title">Tesserakt 2.0</title><desc id="desc">A geometric tesseract projection with four coloured sets of connections: operators, bridges, morphisms and agents.</desc>
<rect width="1200" height="750" fill="#10131b"/><g stroke="#2a303d" stroke-width="1"><path d="M50 120H1150M50 650H1150M600 140V620"/><path d="M80 390H1120" stroke-dasharray="3 9"/></g>
<g fill="none" stroke-width="3"><g stroke="#d5ff5f"><path d="M380 195L820 245M300 475L740 525M510 300L700 320M465 440L655 460M450 255L875 320M385 555L810 620M565 365L748 400M535 505L718 540"/></g><g stroke="#63d8ff"><path d="M380 195L300 475M820 245L740 525M510 300L465 440M700 320L655 460M450 255L385 555M875 320L810 620M565 365L535 505M748 400L718 540"/></g><g stroke="#bb9bff"><path d="M380 195L450 255M820 245L875 320M300 475L385 555M740 525L810 620M510 300L565 365M700 320L748 400M465 440L535 505M655 460L718 540"/></g><g stroke="#ff9e6b"><path d="M380 195L510 300M820 245L700 320M300 475L465 440M740 525L655 460M450 255L565 365M875 320L748 400M385 555L535 505M810 620L718 540"/></g></g>
<g font-family="Arial,Helvetica,sans-serif" fill="#f0f2f7"><text x="50" y="82" font-size="42" font-weight="700" letter-spacing="-2">TESSERAKT <tspan fill="#d5ff5f" font-family="monospace" font-weight="400">2.0</tspan></text><text x="1150" y="76" text-anchor="end" font-family="monospace" font-size="18" fill="#a5acba">MIDI / OSC / SIGNAL FLOW</text><g font-family="monospace" font-size="20"><text x="50" y="703" fill="#d5ff5f">01 OPERATORS</text><text x="350" y="703" fill="#63d8ff">02 BRIDGES</text><text x="635" y="703" fill="#bb9bff">03 MORPHISMS</text><text x="960" y="703" fill="#ff9e6b">04 AGENTS</text></g></g></svg>
